<svg fill="none" stroke-width="1.5" viewBox="0 0 24 24" xmlns="http://www.w3.org/2000/svg"><g stroke="#11314D"><g stroke-linecap="round" stroke-linejoin="round"><path d="m9.159 8.309a5.993 5.993 0 0 0 0 0c.001-.377.04-.752.113-1.122"/><path d="m15.159 14.309a6 6 0 1 0 -5.887-7.122 3.745 3.745 0 1 0 -1.613 7.122z"/><path d="m12.159 14.309-3 3h4.5l-3.75 3.75"/></g><path d="m5.784 21.434a.375.375 0 0 1 0-.75"/><path d="m5.784 21.434a.375.375 0 0 0 0-.75"/><path d="m15.534 21.434a.375.375 0 0 1 0-.75"/><path d="m15.534 21.434a.375.375 0 0 0 0-.75"/></g></svg>
