<svg viewBox="0 0 24 24" xmlns="http://www.w3.org/2000/svg"><g fill="none" stroke="#11314D" stroke-linecap="round" stroke-linejoin="round" stroke-width="1.5"><path d="m.8 13.8c0-.4-.1-.7-.1-1.1 0-3.3 2.7-6 6-6 2.8 0 5.3 2 5.8 4.8 1.8-.9 4.1-.1 5 1.7.1.2.2.4.2.7"/><path d="m12.7 12.7v.8c0-.2 0-.5 0-.8 0-.4 0-.8-.1-1.1"/><path d="m5.2 20.2h17.9"/><path d="m.7 17.2h17.9"/><path d="m.7 23.2h17.9"/><path d="m15.4 4.1v-3"/><path d="m19.8 8.6h3"/><path d="m12.2 5.3-2.1-2.2"/><path d="m18.6 5.4 2.2-2.1"/><path d="m19 11.1c1.4-2 .9-4.8-1.1-6.3-2-1.4-4.8-.9-6.3 1.1 0 0-.1.2-.2.3"/></g></svg>
