<svg stroke-width="1.5" viewBox="0 0 24 24" xmlns="http://www.w3.org/2000/svg"><g fill="none" stroke="#11314D" stroke-linecap="round" stroke-linejoin="round"><path d="m8.25 6v-3"/><path d="m3.75 10.5h-3"/><path d="m11.432 7.318 2.121-2.121"/><path d="m5.068 7.318-2.121-2.121"/><path d="m4.5 12.984a4.5 4.5 0 1 1 7.65-4.736"/><path d="m11.25 15a5.993 5.993 0 0 0 .047.75 5.993 5.993 0 0 1 -.047-.75 5.848 5.848 0 0 1 .113-1.122"/><path d="m17.25 21a6 6 0 1 0 -5.887-7.122 3.745 3.745 0 1 0 -1.613 7.122z"/></g></svg>
