<svg fill="none" stroke-width="1.5" viewBox="0 0 24 24" xmlns="http://www.w3.org/2000/svg"><g stroke="#11314D"><path d="m9.157 8.489a5.993 5.993 0 0 0 0 0c.002-.377.04-.752.113-1.122" stroke-linecap="round" stroke-linejoin="round"/><path d="m12.157 18.614a.375.375 0 0 1 0-.75"/><path d="m12.157 18.614a.375.375 0 0 0 0-.75"/><path d="m7.657 18.614a.375.375 0 0 1 0-.75"/><path d="m7.657 18.614a.375.375 0 0 0 0-.75"/><path d="m16.657 18.614a.375.375 0 0 1 0-.75"/><path d="m16.657 18.614a.375.375 0 0 0 0-.75"/><path d="m10.657 23.114a.375.375 0 0 1 0-.75"/><path d="m10.657 23.114a.375.375 0 0 0 0-.75"/><path d="m6.157 23.114a.375.375 0 0 1 0-.75"/><path d="m6.157 23.114a.375.375 0 0 0 0-.75"/><path d="m15.157 23.114a.375.375 0 0 1 0-.75"/><path d="m15.157 23.114a.375.375 0 0 0 0-.75"/><path d="m15.157 14.489a6 6 0 1 0 -5.887-7.122 3.745 3.745 0 1 0 -1.613 7.122z" stroke-linecap="round" stroke-linejoin="round"/></g></svg>
