<svg fill="none" stroke-width="1.5" viewBox="0 0 24 24" xmlns="http://www.w3.org/2000/svg"><g stroke="#11314D"><g stroke-linecap="round" stroke-linejoin="round"><path d="m8.25 3.75v-3"/><path d="m3.75 8.25h-3"/><path d="m11.432 5.068 2.121-2.121"/><path d="m5.068 5.068-2.121-2.121"/><path d="m4.5 10.734a4.5 4.5 0 1 1 7.65-4.736"/><path d="m20.24 17.972a6 6 0 1 0 -8.886-6.319 3.745 3.745 0 1 0 -1.613 7.122"/><path d="m11.24 12.775a6.008 6.008 0 0 0 0 0c.002-.377.04-.752.114-1.122"/></g><path d="m13.125 19.5a.375.375 0 0 1 0-.75"/><path d="m13.125 19.5a.375.375 0 0 0 0-.75"/><path d="m17.625 19.5a.375.375 0 0 1 0-.75"/><path d="m17.625 19.5a.375.375 0 0 0 0-.75"/><path d="m10.875 23.25a.375.375 0 0 1 0-.75"/><path d="m10.875 23.25a.375.375 0 0 0 0-.75"/><path d="m15.375 23.25a.375.375 0 0 1 0-.75"/><path d="m15.375 23.25a.375.375 0 0 0 0-.75"/></g></svg>
