<svg stroke-width="1.5" viewBox="0 0 24 24" xmlns="http://www.w3.org/2000/svg"><g fill="none" stroke="#11314D" stroke-linecap="round" stroke-linejoin="round"><path d="m8.25 3.775v-3"/><path d="m3.75 8.275h-3"/><path d="m11.432 5.093 2.121-2.121"/><path d="m5.068 5.093-2.121-2.121"/><path d="m4.5 10.759a4.5 4.5 0 1 1 7.65-4.736"/><path d="m9.375 22.525a.375.375 0 0 1 .375.375"/><path d="m9 22.9a.375.375 0 0 1 .375-.375"/><path d="m9.375 23.275a.375.375 0 0 1 -.375-.375"/><path d="m9.75 22.9a.375.375 0 0 1 -.375.375"/><path d="m13.875 22.525a.375.375 0 0 1 .375.375"/><path d="m13.5 22.9a.375.375 0 0 1 .375-.375"/><path d="m13.875 23.275a.375.375 0 0 1 -.375-.375"/><path d="m14.25 22.9a.375.375 0 0 1 -.375.375"/><path d="m20.25 17.972a6 6 0 1 0 -8.887-6.319 3.745 3.745 0 1 0 -1.613 7.122"/><path d="m11.25 12.775a5.993 5.993 0 0 0 .047.75 5.993 5.993 0 0 1 -.047-.75 5.848 5.848 0 0 1 .113-1.122"/><path d="m13.5 18.775-3.86 3.86"/><path d="m18 18.775-3.86 3.86"/></g></svg>
